<?xml version="1.0" encoding="UTF-8" standalone="no"?>
<svg
   xmlns="http://www.w3.org/2000/svg"
   id="NATO Map Symbol"
   height="400"
   width="600">
  <g
     id="Maint"
	 style="fill:none;stroke:#0000ff;stroke-width:10;stroke-linecap:round">
    <path
       d="M 172.14628,200 H 427.85373"
       id="W1" />
    <path
       d="m 123.9979,153.33611 c 25.77175,0 46.66388,20.89214 46.66388,46.66389 0,25.77175 -20.89213,46.66389 -46.66388,46.66389"
       id="W2" />
    <path
       d="m 476.00211,153.33611 c -25.77176,0 -46.66389,20.89214 -46.66389,46.66389 0,25.77176 20.89213,46.66389 46.66389,46.66389"
       id="W3" />
  </g>
  <g
     style="fill:none;stroke:#0000ff;stroke-width:10;stroke-linecap:round;stroke-linejoin:miter;stroke-miterlimit:4"
     id="Wheels">
  <path
     d="m 476.07332,288.03284 a 31.357262,31.357262 0 1 1 -62.71452,0 31.357262,31.357262 0 1 1 62.71452,0 z"
     id="Wheel-1" />
  <path
     d="m 186.6412,288.04259 a 31.357262,31.357262 0 1 1 -62.71451,0 31.357262,31.357262 0 1 1 62.71451,0 z"
     id="Wheel2" />
  <path
       d="M 124,256.66 H 476"
       id="Bed" />
  </g>
  <path
     id="Friendly Frame"
     d="M 5,5 H 595 V 395 H 5 Z"
     style="fill:none;stroke:#0000ff;stroke-width:10;stroke-linejoin:miter;stroke-miterlimit:4" />
</svg>
