<?xml version="1.0" encoding="UTF-8" standalone="no"?>
<svg
   xmlns:dc="http://purl.org/dc/elements/1.1/"
   xmlns:cc="http://creativecommons.org/ns#"
   xmlns:rdf="http://www.w3.org/1999/02/22-rdf-syntax-ns#"
   xmlns:svg="http://www.w3.org/2000/svg"
   xmlns="http://www.w3.org/2000/svg"
   version="1.1"
   width="600"
   height="400"
   id="NATO Map Symbol">
    <text
     style="font-style:normal;font-weight:normal;font-size:50px;line-height:0%;font-family:sans-serif;text-align:center;letter-spacing:0px;word-spacing:0px;text-anchor:middle;fill:#000000;fill-opacity:1;stroke:none"
     xml:space="preserve"
     id="SOF"
     y="90.927742"
     x="297.33887"><tspan
       style="font-size:100px;font-family:sans-serif"
       id="tspan2990"
       y="90.927742"
       x="297.33887">SOF</tspan></text>
  <g
     transform="matrix(1.1062909,0,0,1.1062909,668.64489,177.98089)"
     id="NAVY">
  <path
       d="m -331.8198,-61.778796 c -12.36048,10e-7 -22.37872,9.64618 -22.375,21.53125 -0.004,11.88507 10.01452,21.53125 22.375,21.53125 12.36047,3e-6 22.37872,-9.64618 22.375,-21.53125 0.004,-11.88507 -10.01453,-21.53125 -22.375,-21.53125 z m -0.5,10.46875 c 6.00023,0 10.87681,4.668052 10.875,10.4375 0.002,5.76946 -4.87477,10.437501 -10.875,10.4375 -6.00023,0 -10.8768,-4.668038 -10.875,-10.4375 -0.002,-5.76945 4.87477,-10.437499 10.875,-10.4375 z"
       id="path1919-7"
       style="fill:#000000;fill-opacity:1;fill-rule:nonzero;stroke:none" />
  <path
       d="m -340.18898,-22.974606 c -1.05318,-0.01862 0,2.07487 0,9.08423 v 9.0842301 l -21.88077,-0.30563 c -17.20268,-0.24028 -22.22696,-0.01831 -23.5,1.03822 -2.03573,1.6895 -2.35587,13.07795 -0.36923,13.13459 l 44.75,-0.10442 c 0.0502,10.6893499 0.18919,21.3795499 0.0528,32.0687799 -0.50445,22.08005 -0.89167,44.16191 -1.09699,66.246826 -0.0907,11.96075 -0.54567,23.43575 -1.011,25.5 -1.75387,7.78032 -6.6609,8.83712 -21.78462,4.69165 -15.72824,-4.31117 -35.2638,-13.89536 -38.55191,-18.91365 -2.61401,-3.98948 -3.02199,-7.41014 -1.13279,-9.49769 0.94186,-1.04074 2.3423,-1.65058 3.11208,-1.35518 0.85114,0.32661 1.74616,-0.38559 2.28398,-1.81744 1.89317,-5.04024 -4.42569,-12.489676 -16.8715,-19.890146 -3.025,-1.79872 -7.975,-5.66156 -11,-8.58411 -3.17396,-3.06645 -5.97318,-5.01059 -6.61885,-4.59698 -2.00908,1.28699 -6.11977,10.58346 -7.38283,16.69651 -2.5391,12.288976 0.6822,30.421776 6.66826,37.535806 3.15992,3.75535 4.92268,3.7881 5.65927,0.10514 1.29789,-6.48941 9.37509,-4.61753 18.17415,4.21184 6.96391,6.9879 20.22459,17.11783 26,19.86159 2.2,1.04517 5.35,2.74447 7,3.77621 1.65,1.03175 6.6,3.1072 11,4.61211 9.21793,3.15277 20.01247,8.73476 24.28671,12.55895 1.62377,1.4528 4.07609,3.37779 5.44961,4.27775 2.40267,1.57429 2.56162,1.53814 4.1946,-0.9541 3.39955,-5.18837 9.26326,-9.72836 18.14591,-14.04949 4.99226,-2.42858 9.82693,-4.4156 10.74373,-4.4156 1.94871,0 18.39391,-7.2755 28.30068,-12.52046 7.76319,-4.11009 11.26027,-6.58751 19.93314,-14.12117 9.79136,-8.50524 14.74544,-9.46592 19.88407,-3.85585 l 3.20818,3.50253 2.05971,-2.25253 c 3.72664,-4.07549 5.09818,-8.17305 5.81873,-17.38378 0.55098,-7.04321 0.31735,-10.867036 -1.03741,-16.979556 -2.14072,-9.65872 -5.73012,-17.91339 -8.41388,-19.34969 -1.6945,-0.90688 -2.27129,-0.64424 -3.7194,1.6936 -2.51789,4.0649 -6.03622,7.26168 -12.81202,11.64109 -8.11322,5.24383 -13.00914,10.64971 -14.51451,16.026326 -1.45411,5.19359 -0.79213,7.07889 1.9671,5.60219 3.00999,-1.61089 4.971,-1.17154 6.13062,1.37356 1.63265,3.58327 -0.81998,6.46569 -10.29975,12.10467 -16.19084,9.63101 -37.90007,17.51907 -48.21532,17.51907 -4.86756,0 -9.43855,-1.88286 -10.17063,-4.18944 -0.35301,-1.11225 -0.37114,-14.23714 -0.0403,-29.16642 0.33085,-14.929276 0.86611,-42.664026 1.18946,-61.632786 0.32336,-18.96876 0.73947,-34.73387 0.9247,-35.03359 0.18523,-0.2997099 10.49723,-0.4502699 22.91554,-0.3345899 25.76464,0.24002 24.4093,0.7241699 24.19598,-8.64317 l -0.12526,-5.5 c -15.38666,-1.07881 -31.13789,0.94184 -46.4599,-1.12656 -0.2892,-0.2892 -0.59164,-3.85321 -0.67208,-7.9200301 l -0.14626,-9.16666 -16.22176,-0.28675 z"
       id="path1881-8"
       style="fill:#000000" />
  </g>
  <path
     id="Friendly Frame"
     d="M 5,5 H 595 V 395 H 5 Z"
     style="fill:none;stroke:#0000ff;stroke-width:10;stroke-linecap:round;stroke-linejoin:miter;stroke-miterlimit:4;stroke-dasharray:none;stroke-opacity:1" />
</svg>
