<?xml version="1.0" encoding="UTF-8" standalone="no"?>
<svg
   xmlns:dc="http://purl.org/dc/elements/1.1/"
   xmlns:cc="http://creativecommons.org/ns#"
   xmlns:rdf="http://www.w3.org/1999/02/22-rdf-syntax-ns#"
   xmlns:svg="http://www.w3.org/2000/svg"
   xmlns="http://www.w3.org/2000/svg"
   version="1.1"
   width="600"
   height="400"
   id="NATO Map Symbol">
  <path
     d="m 4.7397284,379.92397 c 35.9343196,0 37.8712096,-62.0854 73.8055296,-62.0854 35.934322,0 37.880212,61.44969 73.805512,62.0854 v 0 c 35.93432,0 37.87119,-62.0854 73.80552,-62.0854 35.93431,0 37.87119,62.0854 73.80551,62.0854 35.93431,0 37.8712,-62.0854 73.80551,-62.0854 35.93432,0 37.8712,62.0854 73.8055,62.0854 35.93433,0 37.87123,-62.0854 73.80555,-62.0854 35.93431,0 37.88019,61.44969 73.8055,62.0854"
     style="fill:none;stroke:#000000;stroke-width:10;stroke-linecap:butt;stroke-linejoin:miter;stroke-miterlimit:4;stroke-dasharray:none;stroke-opacity:1"
     id="path2991-5-1" />
  <path
     style="fill:none;stroke:#010101;stroke-width:10;stroke-miterlimit:4;stroke-dasharray:none;stroke-opacity:1"
     id="path3007"
     d="m 419.27057,200 a 119.27057,119.27057 0 1 1 -238.54113,0 119.27057,119.27057 0 1 1 238.54113,0 z" />
  <path
     style="fill:none;stroke:#010101;stroke-width:10;stroke-linecap:butt;stroke-linejoin:miter;stroke-miterlimit:4;stroke-dasharray:none;stroke-opacity:1"
     id="path3787"
     d="M 180.72944,200 H 419.27056" />
  <path
     style="fill:none;stroke:#010101;stroke-width:10;stroke-linecap:butt;stroke-linejoin:miter;stroke-miterlimit:4;stroke-dasharray:none;stroke-opacity:1"
     id="path3787-1"
     d="M 215.66298,284.33702 384.33702,115.66298" />
  <path
     style="fill:none;stroke:#010101;stroke-width:10;stroke-linecap:butt;stroke-linejoin:miter;stroke-miterlimit:4;stroke-dasharray:none;stroke-opacity:1"
     id="path3787-7"
     d="M 300,80.72944 V 319.27056" />
  <path
     style="fill:none;stroke:#010101;stroke-width:10;stroke-linecap:butt;stroke-linejoin:miter;stroke-miterlimit:4;stroke-dasharray:none;stroke-opacity:1"
     id="path3787-1-8"
     d="M 215.66298,115.66298 384.33702,284.33702" />
  <path
     id="Friendly Frame"
     d="M 5,5 H 595 V 395 H 5 Z"
     style="fill:none;stroke:#0000ff;stroke-width:10;stroke-linecap:round;stroke-linejoin:miter;stroke-miterlimit:4;stroke-dasharray:none;stroke-opacity:1" />
</svg>
