<?xml version="1.0" encoding="UTF-8" standalone="no"?>
<svg
   xmlns:dc="http://purl.org/dc/elements/1.1/"
   xmlns:cc="http://creativecommons.org/ns#"
   xmlns:rdf="http://www.w3.org/1999/02/22-rdf-syntax-ns#"
   xmlns:svg="http://www.w3.org/2000/svg"
   xmlns="http://www.w3.org/2000/svg"
   version="1.1"
   width="600"
   height="400"
   id="NATO Map Symbol">
  <path
     id="path3787-1-8"
     d="m 384.34924,284.35934 c -11.04013,11.04332 -24.27211,19.88672 -38.69839,25.86349 -14.42628,5.97678 -30.03549,9.08222 -45.65084,9.08222 -15.61536,0 -31.22457,-3.10544 -45.65085,-9.08222 -14.42628,-5.97677 -27.65826,-14.82017 -38.69839,-25.86349 -11.04013,-11.04331 -19.87971,-24.27786 -25.85231,-38.70586 -5.97261,-14.42801 -9.07354,-30.03812 -9.06902,-45.65348 -0.005,-15.61536 3.09641,-31.22547 9.06902,-45.65348 5.9726,-14.428 14.81218,-27.66255 25.85231,-38.70586 11.04013,-11.04333 24.27211,-19.886722 38.69839,-25.863496 14.42628,-5.976775 30.03549,-9.08222 45.65085,-9.08222 15.61535,0 31.22456,3.105445 45.65084,9.08222 14.42628,5.976774 27.65826,14.820166 38.69839,25.863496 -29.25489,27.49713 -57.68796,55.97889 -86.40088,84.07136 27.72868,29.19675 59.36132,54.80583 86.40088,84.64732 z"
     style="fill:none;stroke:#010101;stroke-width:10;stroke-linecap:butt;stroke-linejoin:miter;stroke-miterlimit:4;stroke-dasharray:none;stroke-opacity:1" />
  <path
     id="Friendly Frame"
     d="M 5,5 H 595 V 395 H 5 Z"
     style="fill:none;stroke:#0000ff;stroke-width:10;stroke-linecap:round;stroke-linejoin:miter;stroke-miterlimit:4;stroke-dasharray:none;stroke-opacity:1" />
</svg>
