<?xml version="1.0" encoding="UTF-8" standalone="no"?>
<svg
   xmlns:dc="http://purl.org/dc/elements/1.1/"
   xmlns:cc="http://creativecommons.org/ns#"
   xmlns:rdf="http://www.w3.org/1999/02/22-rdf-syntax-ns#"
   xmlns:svg="http://www.w3.org/2000/svg"
   xmlns="http://www.w3.org/2000/svg"
   version="1.1"
   width="600"
   height="400"
   id="NATO Map Symbol">
  <path
     d="m 4.7337036,317.83857 c 35.9343204,0 37.8712104,62.0854 73.8055304,62.0854 35.934316,0 37.880206,-61.44969 73.805506,-62.0854 v 0 c 35.93432,0 37.87119,62.0854 73.80552,62.0854 35.93431,0 37.87119,-62.0854 73.80551,-62.0854 35.93431,0 37.8712,62.0854 73.80551,62.0854 35.93432,0 37.8712,-62.0854 73.8055,-62.0854 35.93433,0 37.87123,62.0854 73.80555,62.0854 35.93431,0 37.88019,-61.44969 73.8055,-62.0854"
     style="fill:none;stroke:#000000;stroke-width:10;stroke-linecap:butt;stroke-linejoin:miter;stroke-miterlimit:4;stroke-dasharray:none;stroke-opacity:1"
     id="path2991-5-1" />
  <path
     style="fill:none;stroke:#000000;stroke-width:10;stroke-linecap:butt;stroke-linejoin:miter;stroke-miterlimit:4;stroke-dasharray:none;stroke-opacity:1"
     id="path3881"
     d="M 595,395 5,5" />
  <path
     style="fill:none;stroke:#000000;stroke-width:10;stroke-linecap:butt;stroke-linejoin:miter;stroke-miterlimit:4;stroke-dasharray:none;stroke-opacity:1"
     id="path3883"
     d="M 595,5 5,395" />
  <path
     style="color:#000000;display:inline;overflow:visible;visibility:visible;fill:none;stroke:#000000;stroke-width:10;stroke-linecap:round;stroke-linejoin:miter;stroke-miterlimit:4;stroke-dasharray:none;stroke-dashoffset:0;stroke-opacity:1;marker:none;enable-background:accumulate"
     id="path2988"
     d="m 210.81531,298.27649 c -54.27662,0 -98.2765,-43.99988 -98.2765,-98.2765 0,-54.2766 43.99988,-98.27649 98.2765,-98.27649 h 178.36938 c 54.27662,0 98.2765,43.99989 98.2765,98.27649 0,54.27662 -43.99988,98.2765 -98.2765,98.2765 z" />
  <path
     id="Friendly Frame"
     d="M 5,5 H 595 V 395 H 5 Z"
     style="fill:none;stroke:#0000ff;stroke-width:10;stroke-linecap:round;stroke-linejoin:miter;stroke-miterlimit:4;stroke-dasharray:none;stroke-opacity:1" />
</svg>
