<?xml version="1.0" encoding="UTF-8"?>
<svg version="1.1" xmlns="http://www.w3.org/2000/svg" width="1200" height="800">
<path d="M0 0 C396 0 792 0 1200 0 C1200 264 1200 528 1200 800 C804 800 408 800 0 800 C0 536 0 272 0 0 Z M20 20 C20 73.46 20 126.92 20 182 C402.8 182 785.6 182 1180 182 C1180 128.54 1180 75.08 1180 20 C797.2 20 414.4 20 20 20 Z M20 203 C20 393.41 20 583.82 20 780 C402.8 780 785.6 780 1180 780 C1180 589.59 1180 399.18 1180 203 C797.2 203 414.4 203 20 203 Z " fill="#0000FE" transform="translate(0,0)"/>
<path d="M0 0 C382.8 0 765.6 0 1160 0 C1160 6.93 1160 13.86 1160 21 C777.2 21 394.4 21 0 21 C0 14.07 0 7.14 0 0 Z " fill="#000000" transform="translate(20,182)"/>
</svg>
