<?xml version="1.0" encoding="UTF-8"?>
<svg data-bbox="0 0 81 55.33" viewBox="0 0 81 55.33" xmlns="http://www.w3.org/2000/svg" data-type="color">
    <g>
        <path fill="#ffd00b" d="M79.5 1.5v52.33h-78V1.5h78z" data-color="1"/>
        <path d="M78 3v49.33H3V3h75m3-3H0v55.33h81V0Z" fill="#000000" data-color="2"/>
        <path fill="#ffffff" d="M66.28 27.66c0 5.992-4.858 10.85-10.85 10.85H25.56c-5.992 0-10.85-4.858-10.85-10.85s4.858-10.85 10.85-10.85h29.87c5.992 0 10.85 4.858 10.85 10.85z" opacity=".4" data-color="3"/>
        <path d="M55.44 39.52H25.56c-6.53 0-11.85-5.32-11.85-11.85s5.32-11.85 11.85-11.85h29.87c6.53 0 11.85 5.32 11.85 11.85s-5.32 11.85-11.85 11.85ZM25.56 17.81c-5.43 0-9.85 4.42-9.85 9.85s4.42 9.85 9.85 9.85h29.87c5.43 0 9.85-4.42 9.85-9.85s-4.42-9.85-9.85-9.85H25.56Z" fill="#000000" data-color="2"/>
    </g>
</svg>
