<?xml version="1.0" encoding="UTF-8" standalone="no"?>
<svg
   xmlns="http://www.w3.org/2000/svg"
   id="NATO Map Symbol"
   height="400"
   width="600">
    <g
       id="Wheeled"
	   style="fill:none;stroke:#0000ff;stroke-width:10">
      <path
         id="Wheel-L"
         d="m 250.28578,338.88127 a 31.357262,31.357262 0 1 1 -62.71451,0 31.357262,31.357262 0 1 1 62.71451,0 z" />
      <path
         id="Wheel-C"
         d="m 331.35727,338.88127 a 31.357262,31.357262 0 1 1 -62.71452,0 31.357262,31.357262 0 1 1 62.71452,0 z" />
      <path
         id="Wheel-R"
         d="m 412.42874,338.88127 a 31.357262,31.357262 0 1 1 -62.71452,0 31.357262,31.357262 0 1 1 62.71452,0 z" />
    </g>
  <path
     style="fill:none;stroke:#0000ff;stroke-width:10;stroke-linecap:butt;stroke-linejoin:miter;stroke-miterlimit:4"
     d="M 5,395 300,11 595,395"
     id="AArmour" />
  <path
     id="Friendly Frame"
     d="M 5,5 H 595 V 395 H 5 Z"
     style="fill:none;stroke:#0000ff;stroke-width:10;stroke-linejoin:miter;stroke-miterlimit:4" />
</svg>
